<?xml version="1.0" encoding="UTF-8" standalone="no"?>
<svg
   xmlns:dc="http://purl.org/dc/elements/1.1/"
   xmlns:cc="http://creativecommons.org/ns#"
   xmlns:rdf="http://www.w3.org/1999/02/22-rdf-syntax-ns#"
   xmlns:svg="http://www.w3.org/2000/svg"
   xmlns="http://www.w3.org/2000/svg"
   xmlns:sodipodi="http://sodipodi.sourceforge.net/DTD/sodipodi-0.dtd"
   xmlns:inkscape="http://www.inkscape.org/namespaces/inkscape"
   width="128.0px"
   height="128.0px"
   viewBox="0 0 128.0 128.0"
   version="1.1"
   id="SVGRoot"
   sodipodi:docname="com.github.carlos157oliveira.Calculus.svg"
   inkscape:version="1.0.1 (3bc2e813f5, 2020-09-07)">
  <defs
     id="defs16" />
  <sodipodi:namedview
     id="base"
     pagecolor="#ffffff"
     bordercolor="#666666"
     borderopacity="1.0"
     inkscape:pageopacity="0.0"
     inkscape:pageshadow="2"
     inkscape:zoom="2.8"
     inkscape:cx="37.721527"
     inkscape:cy="80.485544"
     inkscape:document-units="px"
     inkscape:current-layer="layer2"
     inkscape:document-rotation="0"
     showgrid="true"
     inkscape:window-width="1366"
     inkscape:window-height="713"
     inkscape:window-x="0"
     inkscape:window-y="27"
     inkscape:window-maximized="1">
    <inkscape:grid
       type="xygrid"
       id="grid25" />
  </sodipodi:namedview>
  <metadata
     id="metadata19">
    <rdf:RDF>
      <cc:Work
         rdf:about="">
        <dc:format>image/svg+xml</dc:format>
        <dc:type
           rdf:resource="http://purl.org/dc/dcmitype/StillImage" />
        <dc:title></dc:title>
      </cc:Work>
    </rdf:RDF>
  </metadata>
  <g
     inkscape:label="Layer 1"
     inkscape:groupmode="layer"
     id="layer1"
     sodipodi:insensitive="true">
    <circle
       style="fill:#1a1a1a;stroke-width:0.653198"
       id="path32"
       cx="64"
       cy="64"
       r="64" />
  </g>
  <g
     inkscape:groupmode="layer"
     id="layer2"
     inkscape:label="Layer 2">
    <path
       style="fill:#ffffff"
       id="path73"
       d="m 90,55 c -1.239056,-1.061541 -2.261825,-2.348369 -3.322543,-3.58186 -0.823423,-1.041545 -1.652965,-1.596502 -2.93762,-1.884168 -1.693975,-0.186045 -3.40748,-0.117931 -5.109345,-0.112302 -1.144849,-0.0162 -2.299749,0.01345 -3.421149,0.268478 -0.235023,0.05345 -0.484175,0.07967 -0.696781,0.193204 -1.7371,0.927663 -3.423403,1.947464 -5.135104,2.921195 -0.176456,0.188067 -0.383797,0.351326 -0.529366,0.5642 -0.950853,1.390478 -1.160755,3.618649 -1.347099,5.241395 -0.225557,1.689766 -0.173151,3.600818 1.120911,4.890267 0.207215,0.206477 0.463532,0.356962 0.695299,0.535443 1.997305,0.997546 4.321528,0.927648 6.503472,0.960286 1.028854,-0.05148 1.643111,-0.04084 2.648564,-0.249378 0.852374,-0.176789 1.792849,-0.486976 2.555638,-0.908865 5.323468,-2.944339 4.06594,-2.050695 6.802511,-4.188551 2.838874,-2.598273 4.603174,-6.02705 6.288856,-9.424896 1.909256,-3.98426 3.650819,-8.0437 5.479177,-12.065475 1.211279,-2.71381 2.292699,-5.482046 3.440659,-8.223022 0.45236,-1.382095 0.9598,-2.724392 1.66585,-3.99729 0,0 -4.747181,2.136202 -4.747181,2.136202 v 0 c -0.643431,1.293448 -1.122558,2.644971 -1.580741,4.01368 -1.076051,2.720255 -2.108344,5.459728 -3.291703,8.135519 -1.774239,4.023606 -3.495683,8.072235 -5.435481,12.019866 -1.740412,3.371952 -3.5635,6.783367 -6.510201,9.272048 -1.66307,1.207943 -2.923004,2.049249 1.862049,-0.838162 0.391518,-0.23625 -0.806353,0.435096 -1.229423,0.608627 -0.793493,0.325467 -1.634059,0.523477 -2.483279,0.628802 -0.442916,0.05493 -0.89056,0.06059 -1.335839,0.09088 -2.087162,-0.03646 -4.283536,0.04043 -6.249383,-0.754306 -0.208545,-0.139073 -0.438547,-0.250395 -0.625635,-0.417219 -1.265582,-1.128499 -1.174139,-2.961663 -0.997021,-4.485459 0.214674,-1.590467 0.438343,-3.714814 1.586015,-4.956108 0.165951,-0.179489 0.379544,-0.308173 0.569315,-0.46226 -6.948883,3.878026 -4.748508,2.37231 -3.163912,1.90196 1.098325,-0.326012 2.249291,-0.387597 3.388083,-0.376712 1.658709,-0.0078 3.321663,-0.034 4.977029,0.0871 1.228338,0.175947 1.988231,0.586397 2.801651,1.555715 1.101435,1.240186 2.154332,2.523124 3.296668,3.726462 0,0 4.467059,-2.825294 4.467059,-2.825294 z" />
    <path
       style="fill:#ffffff"
       id="path75"
       d="m 58.485936,66.462257 c 2.855677,0.699096 5.631665,1.669891 8.412252,2.614794 3.921929,1.282028 7.767899,2.77962 11.554549,4.414976 4.039844,1.59536 7.997087,3.388318 12.008378,5.050968 0.905411,0.339269 1.774193,0.758209 2.628404,1.207734 0,0 4.350864,-2.861314 4.350864,-2.861314 v 0 c -0.908107,-0.436927 -1.830275,-0.84115 -2.788658,-1.158391 -4.095199,-1.511745 -8.091708,-3.277048 -12.125366,-4.94296 -0.696538,-0.326981 -1.385134,-0.671443 -2.089613,-0.980943 -3.067401,-1.347608 -6.277934,-2.368681 -9.422425,-3.513603 -2.705164,-0.977593 -5.418327,-1.924699 -8.161224,-2.790824 0,0 -4.367161,2.959563 -4.367161,2.959563 z" />
    <path
       style="fill:#ffffff"
       id="path77"
       d="m 57.287073,92.816603 c -1.270061,-0.65035 -2.584126,-1.203875 -3.947686,-1.622677 -1.82474,-0.538467 -3.716204,-0.617411 -5.603692,-0.656799 -0.798122,0.03679 -1.655437,0.03646 -2.438923,0.23034 -0.382171,0.09457 -0.768258,0.206759 -1.111352,0.399851 -4.08516,2.299117 -4.719718,2.191798 -6.737552,4.934185 -0.428658,0.815373 -0.845472,1.873223 -0.42424,2.792473 0.190082,0.41482 0.568215,0.78568 0.865434,1.117274 1.182031,1.20532 2.555673,2.16385 4.107063,2.81981 1.912324,0.73282 3.995161,0.64181 6.008735,0.61772 4.012497,-0.1665 4.577346,-1.03774 8.867304,-3.632344 1.134641,-0.68625 2.128245,-1.72844 3.078941,-2.61633 3.823614,-3.669317 6.084152,-8.461831 8.499512,-13.086883 1.482533,-2.73167 2.641581,-5.650036 4.310716,-8.277236 0.834917,-1.287514 0.392403,-0.655024 1.329345,-1.896207 0,0 -4.698819,2.028947 -4.698819,2.028947 v 0 c -0.927195,1.282308 -0.485034,0.633955 -1.328132,1.943934 -1.550978,2.621283 -2.614259,5.500725 -4.033982,8.192714 -2.383608,4.623306 -4.704309,9.364688 -8.600511,12.939421 -0.603173,0.52166 -1.182476,1.072274 -1.809519,1.564994 -0.477848,0.37548 -2.056459,1.28086 -1.500337,1.03581 9.36909,-4.128514 2.871479,-1.63164 2.301013,-1.48917 -0.732774,0.18302 -1.556337,0.22524 -2.301209,0.29229 -1.941357,0.0438 -3.936707,0.0752 -5.81,-0.507934 -1.535383,-0.57338 -2.814327,-1.45211 -3.953717,-2.63467 -0.230937,-0.25485 -0.562806,-0.57075 -0.705468,-0.902344 -0.339908,-0.790055 0.143168,-1.677016 0.527997,-2.334656 0.210748,-0.26329 0.404028,-0.541568 0.632245,-0.789869 1.286225,-1.399419 2.753079,-1.940854 -2.646236,1.05961 -0.337382,0.187487 0.67783,-0.379901 1.045142,-0.498474 0.721814,-0.23301 1.627178,-0.249332 2.371849,-0.300566 1.840023,0.05406 3.692731,0.109594 5.485553,0.573631 1.321007,0.379491 2.575759,0.923181 3.780355,1.58559 0,0 4.440171,-2.882435 4.440171,-2.882435 z" />
    <path
       style="fill:#ffffff"
       id="path83"
       d="m 63.368033,110.55259 c 2.589463,-0.57046 5.020686,-1.70618 7.447361,-2.74859 2.617515,-1.31637 5.38042,-2.28556 8.118741,-3.30855 1.784944,-0.7513 3.69978,-1.03864 5.584847,-1.41504 0,0 4.099084,-3.111014 4.099084,-3.111014 v 0 c -1.900305,0.425774 -3.860832,0.625474 -5.672917,1.381864 -2.733992,1.06916 -5.545721,1.96134 -8.161217,3.31514 -2.345107,1.01312 -4.684621,2.11206 -7.170623,2.73447 0,0 -4.245276,3.15172 -4.245276,3.15172 z" />
    <path
       style="fill:#ffffff"
       id="path85"
       d="m 72.223202,96.048642 c 0.488324,1.067994 0.802166,2.206504 1.169975,3.319864 0.542194,2.136074 1.215657,4.233444 1.930282,6.317394 0.958578,2.76648 2.282043,5.38164 3.483398,8.04596 0,0 4.385891,-2.48305 4.385891,-2.48305 v 0 c -1.27607,-2.61002 -2.586386,-5.21816 -3.411146,-8.01565 -0.662279,-2.10802 -1.342287,-4.209374 -1.833496,-6.365634 -0.347693,-1.129247 -0.648555,-2.274028 -1.077717,-3.376436 0,0 -4.647187,2.557552 -4.647187,2.557552 z" />
    <path
       style="fill:#ffffff"
       id="path97"
       d="m 70.975307,27.497894 c 0.913854,-1.019807 1.411825,-2.298386 1.870281,-3.567974 0.453411,-1.354898 0.567257,-2.776697 0.610092,-4.194527 0.02892,-1.285371 0.128213,-2.568259 -0.294343,-3.80003 -0.527272,-1.002317 -1.485448,-1.25715 -2.530894,-1.384195 -1.287821,-0.09412 -2.581019,-0.06763 -3.871335,-0.06491 -1.146873,0.0045 -2.293753,0.0098 -3.440636,0.0096 -0.63367,0.03106 -1.278879,-0.05126 -1.907769,0.0678 -0.750018,0.141987 -1.468876,0.528723 -2.164522,0.823944 -3.177272,1.518143 -6.415282,3.1295 -9.005537,5.545644 -1.057429,1.149056 -1.907661,2.414812 -2.360209,3.912868 -0.334812,1.434742 -0.257288,2.929278 -0.259479,4.392742 0.01866,2.004535 0.03642,4.009076 0.02384,6.013691 0.0029,1.689569 -0.0078,3.379126 -0.0076,5.068673 0.02214,1.805536 0.0075,3.605829 -0.07962,5.409292 -0.18257,2.27402 -0.610602,4.512719 -1.093157,6.738311 -0.478917,2.304371 -1.010775,4.59514 -1.529717,6.890441 -0.38277,1.441878 -0.633121,2.916063 -1.150054,4.318262 -0.595553,1.595436 -1.351855,3.123457 -2.092467,4.655708 -0.87954,1.776833 -1.900874,3.470533 -2.939228,5.156597 -0.952189,1.423688 -1.789017,2.928703 -2.7943,4.315347 -0.845577,1.275795 -2.005068,2.272766 -3.197243,3.209051 -1.479612,1.123255 -2.914561,2.305502 -4.397626,3.425708 -1.18499,0.936204 -2.154922,2.128941 -3.507999,2.831124 6.674434,-3.846993 4.344892,-1.961756 1.680275,-1.961795 -0.993188,-0.07667 -1.591888,-0.81471 -2.182661,-1.537455 -0.907067,-1.126634 -1.563162,-2.419717 -2.226107,-3.697642 -0.53213,-1.011186 -0.589954,-2.155337 -0.568378,-3.27505 0.189118,-1.444331 0.905438,-2.725046 1.638334,-3.956862 0,0 -4.727539,2.107214 -4.727539,2.107214 v 0 c -0.725084,1.320184 -1.440418,2.686731 -1.563451,4.215428 0.0024,1.205688 0.05972,2.445372 0.676857,3.515494 0.718172,1.280645 1.390498,2.595015 2.294814,3.758458 0.635645,0.853991 1.284243,1.717728 2.385645,1.942816 2.9299,0.274531 4.889379,-1.334817 7.483379,-2.994826 1.238749,-0.833745 2.229168,-1.965193 3.420474,-2.862658 1.478041,-1.146181 2.941923,-2.310899 4.425678,-3.449313 1.187494,-0.969969 2.287979,-2.045752 3.125763,-3.340699 0.955973,-1.426647 1.855094,-2.892692 2.775362,-4.342515 1.016302,-1.695075 2.015049,-3.402001 2.876971,-5.182438 0.757589,-1.560562 1.576727,-3.102371 2.142337,-4.746237 0.460094,-1.422519 0.728588,-2.890578 1.066659,-4.345218 0.490829,-2.289809 0.975849,-4.580019 1.481155,-6.866487 0.507846,-2.25098 0.915949,-4.522327 1.084325,-6.82758 0.107561,-1.819678 0.151326,-3.639768 0.123533,-5.462789 -8.21e-4,-1.685436 -0.01334,-3.370891 -0.01967,-5.056323 -0.02457,-2.00506 -0.02681,-4.010416 -0.01064,-6.01556 0.01332,-1.426172 -0.01522,-2.883813 0.376661,-4.267978 0.5075,-1.399802 1.35223,-2.604286 2.421227,-3.642284 0.646406,-0.550183 0.666469,-0.593248 1.356061,-1.078186 0.248904,-0.175036 1.02595,-0.653098 0.758611,-0.507768 -7.105277,3.862557 -3.573459,2.016023 -1.976885,1.204762 0.699422,-0.282985 0.795123,-0.31021 1.451223,-0.61705 0.201403,-0.09419 0.388039,-0.223657 0.599426,-0.292579 0.600569,-0.195813 1.232175,-0.08197 1.847403,-0.105994 1.152676,-0.0049 2.305351,-0.0083 3.457989,-0.01986 1.27552,-0.01193 2.552309,-0.02903 3.82696,0.02919 0.827495,0.06257 1.72785,0.0965 2.198385,0.88427 0.393333,1.165545 0.264799,2.396374 0.242363,3.608601 -0.0723,1.368707 -0.189293,2.741555 -0.667489,4.039457 -0.486395,1.259056 -1.079018,2.463872 -2.021926,3.450185 0,0 4.866361,-2.075926 4.866361,-2.075926 z" />
  </g>
</svg>
